<mxfile host="app.diagrams.net" modified="2023-12-19T09:37:34.817Z" agent="Mozilla/5.0 (Windows NT 10.0; Win64; x64) AppleWebKit/537.36 (KHTML, like Gecko) Chrome/120.0.0.0 Safari/537.36" etag="pjRAZoKuwiPgtHwJf0Fe" version="22.1.11" type="github">
  <diagram id="R2lEEEUBdFMjLlhIrx00" name="Page-1">
    <mxGraphModel dx="1423" dy="541" grid="1" gridSize="10" guides="1" tooltips="1" connect="1" arrows="1" fold="1" page="1" pageScale="1" pageWidth="850" pageHeight="1100" math="0" shadow="0" extFonts="Permanent Marker^https://fonts.googleapis.com/css?family=Permanent+Marker">
      <root>
        <mxCell id="0" />
        <mxCell id="1" parent="0" />
        <mxCell id="Lvkk-z1q5Wq8Oe2D7Qh1-1" value="Surat Masuk" style="rounded=0;whiteSpace=wrap;html=1;" vertex="1" parent="1">
          <mxGeometry x="280" y="210" width="180" height="90" as="geometry" />
        </mxCell>
        <mxCell id="Lvkk-z1q5Wq8Oe2D7Qh1-2" value="" style="endArrow=none;html=1;rounded=0;" edge="1" parent="1" target="Lvkk-z1q5Wq8Oe2D7Qh1-3">
          <mxGeometry width="50" height="50" relative="1" as="geometry">
            <mxPoint x="370" y="210" as="sourcePoint" />
            <mxPoint x="420" y="160" as="targetPoint" />
          </mxGeometry>
        </mxCell>
        <mxCell id="Lvkk-z1q5Wq8Oe2D7Qh1-3" value="nomorurut_&lt;br&gt;suratmasuk" style="ellipse;whiteSpace=wrap;html=1;" vertex="1" parent="1">
          <mxGeometry x="330" y="40" width="90" height="60" as="geometry" />
        </mxCell>
        <mxCell id="Lvkk-z1q5Wq8Oe2D7Qh1-4" value="" style="endArrow=none;html=1;rounded=0;exitX=0.383;exitY=-0.05;exitDx=0;exitDy=0;exitPerimeter=0;entryX=0.656;entryY=1;entryDx=0;entryDy=0;entryPerimeter=0;" edge="1" parent="1" target="Lvkk-z1q5Wq8Oe2D7Qh1-5">
          <mxGeometry width="50" height="50" relative="1" as="geometry">
            <mxPoint x="355.96000000000004" y="210" as="sourcePoint" />
            <mxPoint x="305" y="113" as="targetPoint" />
          </mxGeometry>
        </mxCell>
        <mxCell id="Lvkk-z1q5Wq8Oe2D7Qh1-5" value="kode_&lt;br&gt;suratmasuk" style="ellipse;whiteSpace=wrap;html=1;" vertex="1" parent="1">
          <mxGeometry x="230" y="60" width="90" height="60" as="geometry" />
        </mxCell>
        <mxCell id="Lvkk-z1q5Wq8Oe2D7Qh1-7" value="" style="endArrow=none;html=1;rounded=0;exitX=0.75;exitY=0;exitDx=0;exitDy=0;" edge="1" parent="1" source="Lvkk-z1q5Wq8Oe2D7Qh1-1">
          <mxGeometry width="50" height="50" relative="1" as="geometry">
            <mxPoint x="425" y="210" as="sourcePoint" />
            <mxPoint x="460" y="90" as="targetPoint" />
          </mxGeometry>
        </mxCell>
        <mxCell id="Lvkk-z1q5Wq8Oe2D7Qh1-8" value="nomor_&lt;br&gt;suratmasuk" style="ellipse;whiteSpace=wrap;html=1;" vertex="1" parent="1">
          <mxGeometry x="425" y="30" width="90" height="60" as="geometry" />
        </mxCell>
        <mxCell id="Lvkk-z1q5Wq8Oe2D7Qh1-12" value="" style="endArrow=none;html=1;rounded=0;entryX=0.38;entryY=1;entryDx=0;entryDy=0;entryPerimeter=0;" edge="1" parent="1" target="Lvkk-z1q5Wq8Oe2D7Qh1-13">
          <mxGeometry width="50" height="50" relative="1" as="geometry">
            <mxPoint x="430" y="210" as="sourcePoint" />
            <mxPoint x="550" y="110" as="targetPoint" />
          </mxGeometry>
        </mxCell>
        <mxCell id="Lvkk-z1q5Wq8Oe2D7Qh1-13" value="tanggalsurat_&lt;br&gt;suratmasuk" style="ellipse;whiteSpace=wrap;html=1;" vertex="1" parent="1">
          <mxGeometry x="515" y="55" width="100" height="70" as="geometry" />
        </mxCell>
        <mxCell id="Lvkk-z1q5Wq8Oe2D7Qh1-15" value="" style="endArrow=none;html=1;rounded=0;entryX=0.725;entryY=0.967;entryDx=0;entryDy=0;entryPerimeter=0;" edge="1" parent="1" target="Lvkk-z1q5Wq8Oe2D7Qh1-16">
          <mxGeometry width="50" height="50" relative="1" as="geometry">
            <mxPoint x="280" y="262.96" as="sourcePoint" />
            <mxPoint x="186.01" y="199.99999999999997" as="targetPoint" />
          </mxGeometry>
        </mxCell>
        <mxCell id="Lvkk-z1q5Wq8Oe2D7Qh1-16" value="disposisi" style="ellipse;whiteSpace=wrap;html=1;" vertex="1" parent="1">
          <mxGeometry x="120" y="180" width="80" height="60" as="geometry" />
        </mxCell>
        <mxCell id="Lvkk-z1q5Wq8Oe2D7Qh1-17" value="" style="endArrow=none;html=1;rounded=0;exitX=0;exitY=0.25;exitDx=0;exitDy=0;" edge="1" parent="1" source="Lvkk-z1q5Wq8Oe2D7Qh1-1" target="Lvkk-z1q5Wq8Oe2D7Qh1-18">
          <mxGeometry width="50" height="50" relative="1" as="geometry">
            <mxPoint x="220" y="220" as="sourcePoint" />
            <mxPoint x="200" y="150" as="targetPoint" />
          </mxGeometry>
        </mxCell>
        <mxCell id="Lvkk-z1q5Wq8Oe2D7Qh1-18" value="tanggal_entry" style="ellipse;whiteSpace=wrap;html=1;" vertex="1" parent="1">
          <mxGeometry x="140" y="110" width="90" height="60" as="geometry" />
        </mxCell>
        <mxCell id="Lvkk-z1q5Wq8Oe2D7Qh1-19" value="" style="endArrow=none;html=1;rounded=0;entryX=0;entryY=0.5;entryDx=0;entryDy=0;" edge="1" parent="1" target="Lvkk-z1q5Wq8Oe2D7Qh1-20">
          <mxGeometry width="50" height="50" relative="1" as="geometry">
            <mxPoint x="460" y="260" as="sourcePoint" />
            <mxPoint x="550" y="260" as="targetPoint" />
          </mxGeometry>
        </mxCell>
        <mxCell id="Lvkk-z1q5Wq8Oe2D7Qh1-20" value="file_suratmasuk" style="ellipse;whiteSpace=wrap;html=1;" vertex="1" parent="1">
          <mxGeometry x="540" y="170" width="90" height="70" as="geometry" />
        </mxCell>
        <mxCell id="Lvkk-z1q5Wq8Oe2D7Qh1-25" value="" style="endArrow=none;html=1;rounded=0;" edge="1" parent="1" target="Lvkk-z1q5Wq8Oe2D7Qh1-26">
          <mxGeometry width="50" height="50" relative="1" as="geometry">
            <mxPoint x="370" y="370" as="sourcePoint" />
            <mxPoint x="370" y="300" as="targetPoint" />
          </mxGeometry>
        </mxCell>
        <mxCell id="Lvkk-z1q5Wq8Oe2D7Qh1-26" value="Mengelola" style="rhombus;whiteSpace=wrap;html=1;" vertex="1" parent="1">
          <mxGeometry x="297.5" y="360" width="145" height="60" as="geometry" />
        </mxCell>
        <mxCell id="Lvkk-z1q5Wq8Oe2D7Qh1-27" value="" style="endArrow=none;html=1;rounded=0;exitX=0.5;exitY=0;exitDx=0;exitDy=0;" edge="1" parent="1" source="Lvkk-z1q5Wq8Oe2D7Qh1-26">
          <mxGeometry width="50" height="50" relative="1" as="geometry">
            <mxPoint x="320" y="350" as="sourcePoint" />
            <mxPoint x="370" y="300" as="targetPoint" />
          </mxGeometry>
        </mxCell>
        <mxCell id="Lvkk-z1q5Wq8Oe2D7Qh1-28" value="id_suratmasuk" style="ellipse;whiteSpace=wrap;html=1;" vertex="1" parent="1">
          <mxGeometry x="510" y="280" width="100" height="60" as="geometry" />
        </mxCell>
        <mxCell id="Lvkk-z1q5Wq8Oe2D7Qh1-29" value="" style="endArrow=none;html=1;rounded=0;entryX=0.02;entryY=0.659;entryDx=0;entryDy=0;entryPerimeter=0;exitX=0.681;exitY=0.193;exitDx=0;exitDy=0;exitPerimeter=0;" edge="1" parent="1" source="Lvkk-z1q5Wq8Oe2D7Qh1-26" target="Lvkk-z1q5Wq8Oe2D7Qh1-28">
          <mxGeometry width="50" height="50" relative="1" as="geometry">
            <mxPoint x="410" y="370" as="sourcePoint" />
            <mxPoint x="480" y="320" as="targetPoint" />
          </mxGeometry>
        </mxCell>
        <mxCell id="Lvkk-z1q5Wq8Oe2D7Qh1-30" value="id_admin" style="ellipse;whiteSpace=wrap;html=1;" vertex="1" parent="1">
          <mxGeometry x="514" y="400" width="96" height="60" as="geometry" />
        </mxCell>
        <mxCell id="Lvkk-z1q5Wq8Oe2D7Qh1-31" value="" style="endArrow=none;html=1;rounded=0;entryX=0.02;entryY=0.659;entryDx=0;entryDy=0;entryPerimeter=0;exitX=1;exitY=1;exitDx=0;exitDy=0;" edge="1" parent="1" target="Lvkk-z1q5Wq8Oe2D7Qh1-30" source="Lvkk-z1q5Wq8Oe2D7Qh1-26">
          <mxGeometry width="50" height="50" relative="1" as="geometry">
            <mxPoint x="396.25" y="445" as="sourcePoint" />
            <mxPoint x="484" y="440" as="targetPoint" />
          </mxGeometry>
        </mxCell>
      </root>
    </mxGraphModel>
  </diagram>
</mxfile>
